# xmcd
#
# Track frame offsets:
# 180
# 32880
# 61487
# 92346
# 116559
# 141851
# 251940
# 280656
#
# Disc length: 4098 seconds
#
#
# Revision: 0
# Processed by: cddbd v1.5.1PL2 Copyright (c) Steve Scherf et al.
# Submitted via: FreeRIP 2.945 
#
DISCID=70100008
DTITLE=Eric Clapton - The slowhand Master Files - part 16 - CD2-
DYEAR=1900
DGENRE=Blues
TTITLE0=Intro-crossroads
TTITLE1=White room
TTITLE2=I shoot the sheriff
TTITLE3=Hung up on your love
TTITLE4=Wonderful tonight
TTITLE5=Same old blues
TTITLE6=tearing us apart
TTITLE7=Holy mother
EXTD=
EXTT0=
EXTT1=
EXTT2=
EXTT3=
EXTT4=
EXTT5=
EXTT6=
EXTT7=
PLAYORDER=
